<?xml version="1.0" encoding="utf-8"?>
<!-- Generator: Adobe Illustrator 16.0.0, SVG Export Plug-In . SVG Version: 6.00 Build 0)  -->
<!DOCTYPE svg PUBLIC "-//W3C//DTD SVG 1.1//EN" "http://www.w3.org/Graphics/SVG/1.1/DTD/svg11.dtd">
<svg version="1.1" id="Layer_1" xmlns="http://www.w3.org/2000/svg" xmlns:xlink="http://www.w3.org/1999/xlink" x="0px" y="0px"
	 width="612px" height="612px" viewBox="0 0 612 612" enable-background="new 0 0 612 612" xml:space="preserve">
<g>
	<path fill="#FFD664" d="M500.754,165.316c0-9.175-5.75-16.992-13.836-20.089V57.688c0-4.247-3.445-7.688-7.688-7.688
		c-4.246,0-7.691,3.441-7.691,7.688v87.542c-8.086,3.098-13.836,10.911-13.836,20.086c0,9.176,5.75,16.989,13.836,20.086v23.989
		c0,4.246,3.445,7.687,7.691,7.687c4.242,0,7.688-3.441,7.688-7.687v-23.989C495.004,182.305,500.754,174.492,500.754,165.316
		L500.754,165.316z M500.754,165.316"/>
	<path fill="#F9C646" d="M489.938,146.66c1.816,3.156,2.871,6.809,2.871,10.711c0,11.887-9.637,21.527-21.523,21.527
		c-3.906,0-7.555-1.054-10.711-2.871c3.715,6.457,10.668,10.813,18.652,10.813c11.891,0,21.527-9.637,21.527-21.524
		C500.754,157.332,496.398,150.379,489.938,146.66L489.938,146.66z M489.938,146.66"/>
	<path fill="#636363" d="M494.605,50H117.395c-4.246,0-7.688,3.441-7.688,7.688c0,4.246,3.442,7.687,7.688,7.687h65.602v97.891
		h246.007V65.375h65.602c4.246,0,7.688-3.441,7.688-7.687C502.293,53.441,498.848,50,494.605,50L494.605,50z M494.605,50"/>
	<path fill="#DFF3FD" d="M244.5,392.871l-87.55,24.32c-35.493,9.859-60.055,42.172-60.055,79.008V552c0,5.523,4.477,10,10,10
		h398.211c5.523,0,10-4.477,10-10v-55.801c0-36.836-24.563-69.148-60.055-79.008l-87.551-24.32H244.5z M244.5,392.871"/>
	<path fill="#F26A6B" d="M325.473,466.672l12.305,61.504L306,562l-31.777-33.824l12.301-61.504H325.473z M325.473,466.672"/>
	<path fill="#E94748" d="M337.777,528.176l-12.301-61.504H306l15.594,78.727C329.684,536.789,337.777,528.176,337.777,528.176
		L337.777,528.176z M337.777,528.176"/>
	<path fill="#636363" d="M515.105,496.203V552c0,5.523-4.477,10-10,10H306l60.477-63.551l30.719-97.328l57.852,16.074
		C490.543,427.047,515.105,459.363,515.105,496.203L515.105,496.203z M515.105,496.203"/>
	<path fill="#494949" d="M455.051,417.191l-6.633-1.844c17.816,15.227,28.758,37.777,28.758,62.352V562h27.93c5.52,0,10-4.477,10-10
		v-55.801C515.105,459.363,490.543,427.051,455.051,417.191L455.051,417.191z M455.051,417.191"/>
	<path fill="#636363" d="M156.95,417.191l57.851-16.07l30.723,97.328L306,562H106.895c-5.523,0-10-4.477-10-10v-55.801
		C96.895,459.363,121.457,427.051,156.95,417.191L156.95,417.191z M156.95,417.191"/>
	<path fill="#F9B3A7" d="M342.902,367.246L306,404.145l-36.902-36.898V308.82h73.805V367.246z M342.902,367.246"/>
	<rect x="402.352" y="163.266" fill="#FFD664" width="26.652" height="41"/>
	<path fill="#494949" d="M409.527,57.688v64.578c0,11.32-9.18,20.5-20.5,20.5H182.997v20.5h246.007V57.688H409.527z M409.527,57.688
		"/>
	<rect x="182.997" y="163.266" fill="#FFD664" width="26.652" height="41"/>
	<path fill="#FBCCC2" d="M306,163.266h-96.351v33.824h-15.375c-11.324,0-20.5,9.18-20.5,20.5v14.351c0,11.321,9.176,20.5,20.5,20.5
		h16.601c7.364,45.907,47.145,80.977,95.125,80.977c53.215,0,96.352-43.137,96.352-96.352v-73.8H306z M306,163.266"/>
	<path fill="#F9B3A7" d="M417.727,197.09h-15.375v-33.824h-28.699v73.8c0,48.336-35.598,88.36-82.004,95.29
		c4.684,0.699,9.473,1.063,14.351,1.063c47.981,0,87.762-35.07,95.125-80.977h16.602c11.324,0,20.5-9.175,20.5-20.5v-14.347
		C438.227,206.27,429.051,197.09,417.727,197.09L417.727,197.09z M417.727,197.09"/>
	<path fill="#F26A6B" d="M306,466.672h19.473l19.988-23.063L306,404.145l-39.464,39.465l19.988,23.063H306z M306,466.672"/>
	<path fill="#E94748" d="M306,404.145l-12.043,12.047l20.668,20.668c3.805,3.805,4.023,9.898,0.5,13.961l-13.738,15.852h24.086
		l19.988-23.063L306,404.145z M306,404.145"/>
	<path fill="#C2E7F3" d="M266.536,443.609L306,404.145l-36.902-36.898l-25.113,25.797L266.536,443.609z M266.536,443.609"/>
	<path fill="#C2E7F3" d="M345.461,443.609L306,404.145l36.903-36.898l25.109,25.797L345.461,443.609z M345.461,443.609"/>
	<path fill="#494949" d="M444.891,530.223V562h-15.375v-31.777c0-4.242,3.445-7.688,7.688-7.688S444.891,525.98,444.891,530.223
		L444.891,530.223z M444.891,530.223"/>
	<path fill="#494949" d="M167.109,562v-31.777c0-4.242,3.441-7.688,7.687-7.688c4.243,0,7.688,3.445,7.688,7.688V562H167.109z
		 M167.109,562"/>
</g>
</svg>
