<?xml version="1.0" encoding="utf-8"?>
<!-- Generator: Adobe Illustrator 16.0.0, SVG Export Plug-In . SVG Version: 6.00 Build 0)  -->
<!DOCTYPE svg PUBLIC "-//W3C//DTD SVG 1.1//EN" "http://www.w3.org/Graphics/SVG/1.1/DTD/svg11.dtd">
<svg version="1.1" id="Layer_1" xmlns="http://www.w3.org/2000/svg" xmlns:xlink="http://www.w3.org/1999/xlink" x="0px" y="0px"
	 width="612px" height="612px" viewBox="0 0 612 612" enable-background="new 0 0 612 612" xml:space="preserve">
<g>
	<g>
		<defs>
			<rect id="SVGID_1_" x="104" y="50" width="404" height="512"/>
		</defs>
		<clipPath id="SVGID_2_">
			<use xlink:href="#SVGID_1_"  overflow="visible"/>
		</clipPath>
		<path clip-path="url(#SVGID_2_)" fill="#F59CAF" d="M447.055,164.312c-6.625-2.308-11.527-7.871-13.242-14.675
			C419.367,92.383,367.527,50,305.781,50c-61.742,0-113.582,42.383-128.027,99.641c-1.715,6.8-6.617,12.363-13.242,14.671
			c-35.512,12.368-60.918,46.309-60.508,86.133c0.516,49.598,41.601,89.223,91.203,89.223h221.152
			c49.602,0,90.688-39.625,91.203-89.223C507.973,210.621,482.566,176.68,447.055,164.312L447.055,164.312z M447.055,164.312"/>
		<path clip-path="url(#SVGID_2_)" fill="#EA7E94" d="M447.055,164.312c-6.625-2.308-11.527-7.871-13.242-14.675
			C419.367,92.383,367.527,50,305.781,50c-34.762,0-66.383,13.434-89.961,35.395c17.27-8.29,36.621-12.938,57.059-12.938
			c61.746,0,113.586,42.383,128.031,99.641c1.715,6.8,6.617,12.363,13.242,14.672c35.512,12.367,60.918,46.308,60.508,86.132
			c-0.242,23.305-9.441,44.406-24.273,60.23c33.066-13.215,56.785-45.082,57.176-82.688
			C507.973,210.621,482.566,176.68,447.055,164.312L447.055,164.312z M447.055,164.312"/>
		<path clip-path="url(#SVGID_2_)" fill="#5C97D0" d="M423.535,562H188.031c-19.222,0-35.82-13.449-39.808-32.254l-43.918-207.109
			c-1.817-8.57,4.718-16.637,13.476-16.637h376.004c8.758,0,15.297,8.066,13.477,16.637l-43.918,207.109
			C459.359,548.551,442.758,562,423.535,562L423.535,562z M423.535,562"/>
		<path clip-path="url(#SVGID_2_)" fill="#4081C3" d="M493.785,306h-42.238c8.758,0,15.293,8.066,13.477,16.637l-43.918,207.109
			C417.121,548.551,400.52,562,381.297,562h42.238c19.223,0,35.82-13.449,39.809-32.254l43.918-207.109
			C509.078,314.066,502.543,306,493.785,306L493.785,306z M493.785,306"/>
	</g>
	<path fill="#4081C3" d="M313.512,473.223v-78.98c0-4.27-3.461-7.727-7.727-7.727c-4.27,0-7.727,3.457-7.727,7.727v78.98
		c0,4.266,3.457,7.727,7.727,7.727C310.051,480.949,313.512,477.488,313.512,473.223L313.512,473.223z M313.512,473.223"/>
	<path fill="#4081C3" d="M239.492,480.633c4.094-1.211,6.43-5.508,5.219-9.602l-23.352-78.98c-1.211-4.09-5.504-6.426-9.602-5.219
		c-4.09,1.211-6.426,5.508-5.219,9.602l23.352,78.98C231.102,479.504,235.398,481.84,239.492,480.633L239.492,480.633z
		 M239.492,480.633"/>
	<path fill="#4081C3" d="M381.676,475.414l23.352-78.98c1.207-4.094-1.129-8.391-5.219-9.602c-4.09-1.207-8.391,1.129-9.602,5.219
		l-23.352,78.98c-1.207,4.094,1.129,8.391,5.219,9.602C376.156,481.84,380.461,479.516,381.676,475.414L381.676,475.414z
		 M381.676,475.414"/>
	<path fill="#F9E24B" d="M168.801,210.875l-23.52,23.52c-4.883,4.882-1.359,13.191,5.465,13.191c1.977,0,3.953-0.758,5.461-2.266
		l23.52-23.519c3.019-3.016,3.019-7.906,0-10.926C176.711,207.859,171.816,207.859,168.801,210.875L168.801,210.875z
		 M168.801,210.875"/>
	<path fill="#F04D6D" d="M249.98,172.418v-33.262c0-4.265-3.457-7.726-7.723-7.726c-4.27,0-7.727,3.461-7.727,7.726v33.262
		c0,4.27,3.457,7.727,7.727,7.727C246.523,180.145,249.98,176.688,249.98,172.418L249.98,172.418z M249.98,172.418"/>
	<path fill="#A6503C" d="M304.887,96.121c-3.016,3.02-3.016,7.91,0,10.93l23.52,23.515c3.02,3.02,7.91,3.02,10.926,0
		c3.02-3.015,3.02-7.906,0-10.925l-23.52-23.52C312.797,93.105,307.902,93.105,304.887,96.121L304.887,96.121z M304.887,96.121"/>
	<path fill="#3C494B" d="M245.699,266.668l30.344-13.621c3.895-1.746,5.633-6.32,3.887-10.215c-1.746-3.891-6.32-5.633-10.215-3.883
		l-30.344,13.621c-3.891,1.746-5.633,6.32-3.883,10.211C237.238,266.688,241.82,268.41,245.699,266.668L245.699,266.668z
		 M245.699,266.668"/>
	<path fill="#A6503C" d="M397.836,260.816c0,4.27,3.461,7.727,7.726,7.727h33.263c4.27,0,7.727-3.457,7.727-7.727
		c0-4.266-3.457-7.727-7.727-7.727h-33.263C401.297,253.09,397.836,256.551,397.836,260.816L397.836,260.816z M397.836,260.816"/>
	<path fill="#5C97D0" d="M352.965,187.512c-4.043-1.356-8.426,0.82-9.789,4.863c-1.359,4.043,0.816,8.426,4.863,9.785l31.523,10.602
		c4.047,1.359,8.43-0.817,9.789-4.86c1.359-4.047-0.816-8.429-4.859-9.789L352.965,187.512z M352.965,187.512"/>
</g>
</svg>
