<?xml version="1.0" encoding="utf-8"?>
<!-- Generator: Adobe Illustrator 16.0.0, SVG Export Plug-In . SVG Version: 6.00 Build 0)  -->
<!DOCTYPE svg PUBLIC "-//W3C//DTD SVG 1.1//EN" "http://www.w3.org/Graphics/SVG/1.1/DTD/svg11.dtd">
<svg version="1.1" id="Layer_1" xmlns="http://www.w3.org/2000/svg" xmlns:xlink="http://www.w3.org/1999/xlink" x="0px" y="0px"
	 width="612px" height="612px" viewBox="0 0 612 612" enable-background="new 0 0 612 612" xml:space="preserve">
<g>
	<path fill="#739FA3" d="M554.4,486.293c0,6.406-5.609,12.016-12.021,12.016H69.622c-6.413,0-12.022-5.609-12.022-12.016
		c0-6.412,5.609-12.021,12.022-12.021h472.757C548.791,474.271,554.4,479.881,554.4,486.293L554.4,486.293z M554.4,486.293"/>
	<rect x="81.637" y="113.691" fill="#198AAE" width="88.145" height="344.553"/>
	<polyline fill="#055780" points="81.637,113.691 169.782,113.691 169.782,458.244 	"/>
	<rect x="201.831" y="185.81" fill="#22966B" width="88.145" height="272.437"/>
	<polyline fill="#047864" points="201.831,185.81 289.976,185.81 289.976,458.244 	"/>
	<rect x="322.024" y="265.938" fill="#E99723" width="88.144" height="192.308"/>
	<polyline fill="#E47625" points="322.024,265.938 410.169,265.938 410.169,458.244 	"/>
	<rect x="442.218" y="330.041" fill="#D22F27" width="88.144" height="128.203"/>
	<polyline fill="#AE2124" points="442.218,330.041 530.362,330.041 530.362,458.244 	"/>
</g>
</svg>
