<?xml version="1.0" encoding="utf-8"?>
<!-- Generator: Adobe Illustrator 16.0.0, SVG Export Plug-In . SVG Version: 6.00 Build 0)  -->
<!DOCTYPE svg PUBLIC "-//W3C//DTD SVG 1.1//EN" "http://www.w3.org/Graphics/SVG/1.1/DTD/svg11.dtd">
<svg version="1.1" id="Layer_1" xmlns="http://www.w3.org/2000/svg" xmlns:xlink="http://www.w3.org/1999/xlink" x="0px" y="0px"
	 width="612px" height="612px" viewBox="0 0 612 612" enable-background="new 0 0 612 612" xml:space="preserve">
<g>
	<path fill="#E63B51" d="M104.211,203.227c-4.574-3.071-10.523-3.364-15.363-0.747c-4.871,2.602-7.91,7.676-7.91,13.204v89.824
		c0,41.27,33.578,74.852,74.851,74.852l8.305-137.208L104.211,203.227z M104.211,203.227"/>
	<path fill="#AE2739" d="M522.145,202.48c-4.871-2.617-10.793-2.324-15.367,0.747l-59.883,39.925l8.305,137.208
		c41.273,0,74.852-33.582,74.852-74.852v-89.824C530.051,210.156,527.012,205.082,522.145,202.48L522.145,202.48z M522.145,202.48"
		/>
	<path fill="#F1647C" d="M470.172,245.625v89.824c0,91.016-73.656,166.668-164.676,166.668
		c-91.023,0-164.676-75.652-164.676-166.668v-89.824c0-91.023,73.653-164.676,164.676-164.676
		c45.512,0,86.828,18.563,116.469,48.203C451.605,158.793,470.172,200.109,470.172,245.625L470.172,245.625z M470.172,245.625"/>
	<path fill="#E63B51" d="M470.172,245.625v89.824c0,91.016-73.656,166.668-164.676,166.668V80.949
		c45.512,0,86.828,18.563,116.469,48.203C451.605,158.793,470.172,200.109,470.172,245.625L470.172,245.625z M470.172,245.625"/>
	<path fill="#FCB54E" d="M322.043,312.199c-3.699-7.394-0.699-16.387,6.699-20.086l59.879-29.941
		c7.398-3.684,16.375-0.699,20.09,6.699c3.695,7.395,0.699,16.387-6.699,20.086l-59.883,29.941
		C334.66,322.609,325.723,319.543,322.043,312.199L322.043,312.199z M322.043,312.199"/>
	<path fill="#FFD397" d="M268.859,318.898l-59.882-29.941c-7.399-3.699-10.395-12.691-6.7-20.086
		c3.715-7.398,12.723-10.383,20.09-6.699l59.883,29.941c7.395,3.699,10.395,12.692,6.695,20.086
		C285.262,319.551,276.324,322.605,268.859,318.898L268.859,318.898z M268.859,318.898"/>
	<path fill="#695550" d="M345.914,459.699l-29.941-29.941c-2.691-2.992-6.582-4.488-10.477-4.488c-3.894,0-7.785,1.496-10.476,4.488
		l-29.942,29.941c-2.996,2.695-4.492,8.984-4.492,13.176c0,30.84,12.574,62.773,34.434,84.633c2.691,2.996,6.582,4.492,10.476,4.492
		c3.895,0,7.785-1.496,10.477-4.492c21.859-21.859,34.434-53.793,34.434-87.328C350.406,466.289,348.91,462.395,345.914,459.699
		L345.914,459.699z M345.914,459.699"/>
	<path fill="#695550" d="M380.348,365.391c0,24.848-20.059,44.91-44.91,44.91h-59.887c-24.848,0-44.91-20.063-44.91-44.91
		c0-8.387,6.589-14.973,14.968-14.973c8.387,0,14.973,6.586,14.973,14.973c0,8.379,6.59,14.969,14.969,14.969h59.887
		c8.383,0,14.969-6.59,14.969-14.969c0-8.387,6.586-14.973,14.973-14.973C373.762,350.418,380.348,357.004,380.348,365.391
		L380.348,365.391z M380.348,365.391"/>
	<path fill="#544440" d="M345.914,459.699c2.996,2.695,4.492,6.59,4.492,10.48c0,33.535-12.574,65.469-34.434,87.328
		c-2.691,2.996-6.582,4.492-10.477,4.492V425.27c3.895,0,7.785,1.496,10.477,4.488L345.914,459.699z M345.914,459.699"/>
	<g>
		<defs>
			<rect id="SVGID_1_" x="80" y="51" width="451" height="511"/>
		</defs>
		<clipPath id="SVGID_2_">
			<use xlink:href="#SVGID_1_"  overflow="visible"/>
		</clipPath>
		<path clip-path="url(#SVGID_2_)" fill="#544440" d="M380.348,365.391c0,24.848-20.059,44.91-44.91,44.91h-29.941v-29.941h29.941
			c8.383,0,14.969-6.59,14.969-14.969c0-8.387,6.586-14.973,14.973-14.973C373.762,350.418,380.348,357.004,380.348,365.391
			L380.348,365.391z M380.348,365.391"/>
		<path clip-path="url(#SVGID_2_)" fill="#544440" d="M380.348,230.652c-33.023,0-59.883-26.851-59.883-59.882
			c0-33.024,26.859-59.879,59.883-59.879c44.27,0,85.891-17.239,117.188-48.539l6.965-6.957c4.281-4.27,10.703-5.586,16.316-3.25
			c5.598,2.312,9.238,7.781,9.238,13.835v14.965C530.051,163.492,462.891,230.652,380.348,230.652L380.348,230.652z
			 M380.348,230.652"/>
		<path clip-path="url(#SVGID_2_)" fill="#695550" d="M230.641,230.652c-82.543,0-149.703-67.16-149.703-149.703V65.98
			c0-6.054,3.64-11.523,9.238-13.835c5.629-2.321,12.031-1.02,16.316,3.25l6.961,6.957c31.301,31.304,72.922,48.539,117.192,48.539
			c33.023,0,59.878,26.855,59.878,59.882C290.523,203.801,263.668,230.652,230.641,230.652L230.641,230.652z M230.641,230.652"/>
	</g>
</g>
</svg>
