<?xml version="1.0" encoding="utf-8"?>
<!-- Generator: Adobe Illustrator 16.0.0, SVG Export Plug-In . SVG Version: 6.00 Build 0)  -->
<!DOCTYPE svg PUBLIC "-//W3C//DTD SVG 1.1//EN" "http://www.w3.org/Graphics/SVG/1.1/DTD/svg11.dtd">
<svg version="1.1" id="Layer_1" xmlns="http://www.w3.org/2000/svg" xmlns:xlink="http://www.w3.org/1999/xlink" x="0px" y="0px"
	 width="612px" height="612px" viewBox="0 0 612 612" enable-background="new 0 0 612 612" xml:space="preserve">
<g>
	<rect x="102.693" y="150.037" fill="#38B779" width="406.22" height="304.669"/>
	<path fill="#7E5D63" d="M501.856,142.785H110.144c-7.996,0-14.509,6.509-14.509,14.51v282.902c0,4.007,3.245,7.257,7.251,7.257
		c4.011,0,7.257-3.25,7.257-7.257V157.295h391.712v282.902c0,4.007,3.245,7.257,7.256,7.257c4.007,0,7.253-3.25,7.253-7.257V157.295
		C516.365,149.294,509.856,142.785,501.856,142.785L501.856,142.785z M501.856,142.785"/>
	<path fill="#E6BE8A" d="M531.073,469.215H80.926c-4.001,0-7.251-3.25-7.251-7.252v-14.509c0-4.007,3.25-7.257,7.251-7.257h450.147
		c4.007,0,7.252,3.25,7.252,7.257v14.509C538.325,465.965,535.08,469.215,531.073,469.215L531.073,469.215z M531.073,469.215"/>
	<path fill="#FFFFFF" d="M197.193,440.197v-14.505c0-4.007-3.251-7.256-7.257-7.256h-43.522c-4.006,0-7.257,3.249-7.257,7.256
		v14.505"/>
	<path fill="#FFFFFF" d="M182.684,324.135c-4.011,0-7.257-3.249-7.257-7.252c0-4.007,3.246-7.257,7.257-7.257
		c11.999,0,21.761-9.763,21.761-21.761s-9.762-21.761-21.761-21.761c-11.999,0-21.76,9.763-21.76,21.761
		c0,4.007-3.247,7.252-7.257,7.252c-4.007,0-7.252-3.245-7.252-7.252c0-20,16.27-36.27,36.27-36.27
		c19.999,0,36.27,16.27,36.27,36.27C218.954,307.864,202.682,324.135,182.684,324.135L182.684,324.135z M182.684,324.135"/>
	<path fill="#FFFFFF" d="M211.696,353.153h-58.03c-4.007,0-7.252-3.25-7.252-7.257v-7.252c0-16.002,13.012-29.019,29.013-29.019
		h7.257c4.007,0,7.252,3.25,7.252,7.257c0,4.003-3.246,7.252-7.252,7.252h-7.257c-7.996,0-14.503,6.509-14.503,14.51h50.773
		c4.011,0,7.257,3.245,7.257,7.252S215.708,353.153,211.696,353.153L211.696,353.153z M211.696,353.153"/>
	<path fill="#FFFFFF" d="M313.255,324.135c-4.012,0-7.252-3.249-7.252-7.252c0-4.007,3.24-7.257,7.252-7.257
		c11.998,0,21.761-9.763,21.761-21.761s-9.763-21.761-21.761-21.761c-11.999,0-21.762,9.763-21.762,21.761
		c0,4.007-3.246,7.252-7.257,7.252c-4.007,0-7.252-3.245-7.252-7.252c0-20,16.271-36.27,36.271-36.27
		c19.998,0,36.27,16.27,36.27,36.27C349.524,307.864,333.253,324.135,313.255,324.135L313.255,324.135z M313.255,324.135"/>
	<path fill="#FFFFFF" d="M342.272,353.153h-58.036c-4.007,0-7.252-3.25-7.252-7.257v-7.252c0-16.002,13.012-29.019,29.019-29.019
		h7.252c4.011,0,7.252,3.25,7.252,7.257c0,4.003-3.241,7.252-7.252,7.252h-7.252c-8.001,0-14.51,6.509-14.51,14.51h50.779
		c4.007,0,7.252,3.245,7.252,7.252S346.279,353.153,342.272,353.153L342.272,353.153z M342.272,353.153"/>
	<path fill="#FFFFFF" d="M262.476,309.626h-29.013c-4.011,0-7.257-3.245-7.257-7.252c0-4.006,3.246-7.257,7.257-7.257h29.013
		c4.011,0,7.257,3.251,7.257,7.257C269.733,306.381,266.486,309.626,262.476,309.626L262.476,309.626z M262.476,309.626"/>
	<path fill="#FFFFFF" d="M393.047,324.135h-29.014c-4.012,0-7.257-3.249-7.257-7.252c0-4.007,3.245-7.257,7.257-7.257h29.014
		c4.011,0,7.256,3.25,7.256,7.257C400.303,320.886,397.058,324.135,393.047,324.135L393.047,324.135z M393.047,324.135"/>
	<path fill="#FFFFFF" d="M393.047,302.374h-29.014c-4.012,0-7.257-3.249-7.257-7.257c0-4.002,3.245-7.252,7.257-7.252h29.014
		c4.011,0,7.256,3.25,7.256,7.252C400.303,299.125,397.058,302.374,393.047,302.374L393.047,302.374z M393.047,302.374"/>
	<path fill="#FFFFFF" d="M247.966,324.135c-4.007,0-7.251-3.249-7.251-7.252v-29.018c0-4.007,3.245-7.252,7.251-7.252
		c4.011,0,7.257,3.245,7.257,7.252v29.018C255.224,320.886,251.978,324.135,247.966,324.135L247.966,324.135z M247.966,324.135"/>
	<path fill="#FFFFFF" d="M472.843,324.135h-58.031c-2.231,0-4.343-1.031-5.72-2.789c-1.373-1.762-1.859-4.056-1.315-6.225
		l14.509-58.03c0.97-3.889,4.901-6.262,8.789-5.279c3.892,0.971,6.256,4.91,5.277,8.798l-12.246,49.017h48.737
		c4.007,0,7.252,3.25,7.252,7.257S476.85,324.135,472.843,324.135L472.843,324.135z M472.843,324.135"/>
	<path fill="#FFFFFF" d="M458.334,353.153c-4.012,0-7.252-3.25-7.252-7.257v-65.283c0-4.008,3.24-7.257,7.252-7.257
		s7.252,3.249,7.252,7.257v65.283C465.586,349.903,462.341,353.153,458.334,353.153L458.334,353.153z M458.334,353.153"/>
	<path fill="#C9A17D" d="M73.675,454.706v7.257c0,4.002,3.25,7.252,7.251,7.252h450.147c4.007,0,7.252-3.25,7.252-7.252v-7.257
		H73.675z M73.675,454.706"/>
</g>
</svg>
