<?xml version="1.0" encoding="utf-8"?>
<!-- Generator: Adobe Illustrator 16.0.0, SVG Export Plug-In . SVG Version: 6.00 Build 0)  -->
<!DOCTYPE svg PUBLIC "-//W3C//DTD SVG 1.1//EN" "http://www.w3.org/Graphics/SVG/1.1/DTD/svg11.dtd">
<svg version="1.1" id="Layer_1" xmlns="http://www.w3.org/2000/svg" xmlns:xlink="http://www.w3.org/1999/xlink" x="0px" y="0px"
	 width="612px" height="612px" viewBox="0 0 612 612" enable-background="new 0 0 612 612" xml:space="preserve">
<g>
	<g>
		<defs>
			<rect id="SVGID_1_" x="66" y="72" width="464" height="464"/>
		</defs>
		<clipPath id="SVGID_2_">
			<use xlink:href="#SVGID_1_"  overflow="visible"/>
		</clipPath>
		<path clip-path="url(#SVGID_2_)" fill="#F6851F" d="M530,303.969c0,128.109-103.855,231.969-231.969,231.969
			c-128.109,0-231.969-103.859-231.969-231.969C66.062,175.855,169.922,72,298.031,72C426.145,72,530,175.855,530,303.969
			L530,303.969z M530,303.969"/>
		<path clip-path="url(#SVGID_2_)" fill="#F17A22" d="M475.754,154.957C375.766,370.125,199.547,408.715,93.188,412.891
			c41.621,78.316,124.253,126.043,212.89,122.973c88.637-3.078,167.758-56.426,203.844-137.441
			C546.012,317.406,532.75,222.906,475.754,154.957L475.754,154.957z M475.754,154.957"/>
	</g>
	<path fill="#F79423" d="M154.387,188.984l-12.469-10.007c-3.199,3.953-6.23,8.078-9.086,12.246l13.219,9.031
		C148.66,196.426,151.469,192.633,154.387,188.984L154.387,188.984z M154.387,188.984"/>
	<path fill="#F79423" d="M139.305,210.852l-13.793-8.094c-15.11,25.832-24.258,54.722-26.766,84.547l15.949,1.328
		C116.992,261.195,125.402,234.617,139.305,210.852L139.305,210.852z M139.305,210.852"/>
	<path fill="#F79423" d="M100.844,337.293c5.523,32.738,19.117,63.586,39.554,89.754l12.598-9.863
		c-18.797-24.063-31.301-52.434-36.379-82.547L100.844,337.293z M100.844,337.293"/>
	<path fill="#E56225" d="M521.945,311.625l7.816,2.395c0.238-5.594,0.238-11.122,0.078-16.691l-3.574-1.086
		c-80.582-20.683-149.047-9.754-194.07,30.578l-22.852-22.852l158.266-158.227c-1.793-1.922-3.57-3.847-5.434-5.719l-0.16-0.16
		c-1.871-1.863-3.801-3.64-5.719-5.429L298.031,292.656l-22.851-22.851c40.32-45.016,51.257-113.52,30.394-194.813l-1.031-2.84
		C298.832,72,293.23,72,287.551,72.246l2.73,7.465c19.199,74.781,9.727,137.828-26.398,178.773l-124.074-124.05
		c-1.922,1.789-3.848,3.566-5.723,5.429l-0.16,0.16c-1.864,1.872-3.637,3.797-5.43,5.719l124.055,124.055
		c-40.946,36.148-103.989,45.594-178.809,26.394l-7.445-1.824c-0.235,5.457-0.235,10.953-0.074,16.449l3.578,0.906
		c24.707,6.555,50.14,9.992,75.707,10.227c47.699,0,88.172-13.965,118.273-40.922l22.938,22.942L128.496,462.191
		c1.793,1.922,3.566,3.852,5.43,5.723l0.16,0.16c1.875,1.863,3.801,3.641,5.723,5.43l158.222-158.227l22.852,22.855
		c-40.321,45.016-51.254,113.52-30.395,194.758l1.024,2.895c5.601,0.152,11.289,0.152,16.93-0.094l-2.664-7.465
		c-19.203-74.785-9.73-137.828,26.395-178.777l124.086,124.098c1.918-1.793,3.848-3.57,5.719-5.434l0.16-0.16
		c1.863-1.871,3.641-3.801,5.434-5.719L343.512,338.141C384.461,301.992,447.508,292.543,521.945,311.625L521.945,311.625z
		 M521.945,311.625"/>
</g>
</svg>
