<?xml version="1.0" encoding="utf-8"?>
<!-- Generator: Adobe Illustrator 16.0.0, SVG Export Plug-In . SVG Version: 6.00 Build 0)  -->
<!DOCTYPE svg PUBLIC "-//W3C//DTD SVG 1.1//EN" "http://www.w3.org/Graphics/SVG/1.1/DTD/svg11.dtd">
<svg version="1.1" id="Layer_1" xmlns="http://www.w3.org/2000/svg" xmlns:xlink="http://www.w3.org/1999/xlink" x="0px" y="0px"
	 width="612px" height="612px" viewBox="0 0 612 612" enable-background="new 0 0 612 612" xml:space="preserve">
<g>
	<g>
		<defs>
			<rect id="SVGID_1_" x="50.5" y="50.5" width="511" height="511"/>
		</defs>
		<clipPath id="SVGID_2_">
			<use xlink:href="#SVGID_1_"  overflow="visible"/>
		</clipPath>
		<path clip-path="url(#SVGID_2_)" fill="#F36B21" d="M207.961,562.5c-38.781,0-79.082-15.883-110.285-47.082
			c-28.047-28.047-44.707-64.227-46.922-101.879c-2.258-38.32,10.652-73.566,36.336-99.254
			c23.258-23.262,55.422-36.234,89.738-36.558c5.172-16.922,14.27-32.161,26.703-44.602c36.274-36.27,94.907-41.934,142.579-13.758
			c1.082,0.641,2.082,1.414,2.969,2.301l42.344,42.344c0.895,0.89,1.664,1.886,2.305,2.972
			c28.172,47.672,22.516,106.301-13.758,142.575c-12.441,12.438-27.676,21.531-44.602,26.707
			c-0.324,34.316-13.301,66.477-36.558,89.738C274.355,550.457,241.73,562.5,207.961,562.5L207.961,562.5z M207.961,562.5"/>
		<path clip-path="url(#SVGID_2_)" fill="#F15F22" d="M335.363,436.266c16.926-5.176,32.164-14.27,44.602-26.707
			c36.273-36.273,41.934-94.902,13.762-142.575c-0.641-1.086-1.414-2.082-2.305-2.972l-21.219-21.215L97.629,515.367
			c0.016,0.016,0.027,0.031,0.047,0.051c31.203,31.199,71.504,47.082,110.285,47.082c33.773,0,66.394-12.043,90.848-36.496
			C322.066,502.742,335.043,470.582,335.363,436.266L335.363,436.266z M335.363,436.266"/>
	</g>
	<path fill="#8F4A21" d="M324.523,345.789c-3.973,0-7.781-1.574-10.59-4.387l-42.344-42.343c-5.844-5.844-5.844-15.321,0-21.168
		l176.844-176.84c5.848-5.848,15.324-5.848,21.172,0l42.344,42.34c2.805,2.808,4.387,6.617,4.387,10.586
		c0,3.968-1.582,7.777-4.387,10.585L335.105,341.406C332.301,344.215,328.492,345.789,324.523,345.789L324.523,345.789z
		 M324.523,345.789"/>
	<path fill="#80431D" d="M313.934,341.406c2.809,2.809,6.617,4.387,10.586,4.387c3.973,0,7.781-1.578,10.582-4.387l176.848-176.84
		c2.805-2.812,4.383-6.617,4.383-10.589c0-3.969-1.578-7.778-4.383-10.586l-21.176-21.168L292.766,320.234L313.934,341.406z
		 M313.934,341.406"/>
	<path fill="#FEDB31" d="M216.941,474.547c-3.832,0-7.668-1.465-10.589-4.387l-63.512-63.512c-5.848-5.848-5.848-15.328,0-21.176
		c5.844-5.848,15.32-5.848,21.168,0l63.515,63.516c5.848,5.844,5.848,15.328,0,21.172
		C224.602,473.082,220.77,474.547,216.941,474.547L216.941,474.547z M216.941,474.547"/>
	<g>
		<defs>
			<rect id="SVGID_3_" x="50.5" y="50.5" width="511" height="511"/>
		</defs>
		<clipPath id="SVGID_4_">
			<use xlink:href="#SVGID_3_"  overflow="visible"/>
		</clipPath>
		<path clip-path="url(#SVGID_4_)" fill="#FEBD1F" d="M206.352,470.16c2.921,2.922,6.757,4.387,10.586,4.387
			c3.832,0,7.664-1.465,10.582-4.387c5.847-5.844,5.847-15.328,0-21.172l-31.754-31.758l-21.172,21.172L206.352,470.16z
			 M206.352,470.16"/>
		<path clip-path="url(#SVGID_4_)" fill="#F15F22" d="M501.367,168.949c-3.859,0-7.695-1.492-10.59-4.383l-42.344-42.343
			c-5.105-5.102-5.84-13.121-1.75-19.067l31.051-45.168c2.52-3.664,6.539-6.023,10.969-6.429c4.422-0.407,8.809,1.179,11.957,4.324
			l56.453,56.457c3.148,3.144,4.73,7.527,4.324,11.957c-0.41,4.43-2.766,8.449-6.43,10.969l-45.164,31.05
			C507.27,168.082,504.313,168.949,501.367,168.949L501.367,168.949z M501.367,168.949"/>
		<path clip-path="url(#SVGID_4_)" fill="#F04923" d="M490.773,164.566c2.898,2.891,6.73,4.383,10.594,4.383
			c2.945,0,5.902-0.867,8.477-2.633l45.164-31.05c3.664-2.52,6.02-6.539,6.43-10.969c0.406-4.43-1.176-8.813-4.324-11.957
			l-28.23-28.227l-59.277,59.278L490.773,164.566z M490.773,164.566"/>
	</g>
	<path fill="#3C3C3C" d="M284.688,383.176c-14.055,0-28.114-5.348-38.817-16.051c-10.367-10.367-16.078-24.152-16.078-38.813
		c0-14.663,5.711-28.449,16.078-38.815c21.402-21.402,56.227-21.402,77.629,0c10.371,10.367,16.078,24.152,16.078,38.815
		c0,14.661-5.707,28.446-16.078,38.813C312.801,377.824,298.746,383.176,284.688,383.176L284.688,383.176z M284.688,383.176"/>
	<path fill="#2D2D2D" d="M284.688,383.176c14.058,0,28.117-5.348,38.812-16.051c10.371-10.367,16.078-24.152,16.078-38.813
		c0-14.663-5.707-28.449-16.078-38.815l-77.629,77.629C256.574,377.824,270.633,383.176,284.688,383.176L284.688,383.176z
		 M284.688,383.176"/>
</g>
</svg>
