<?xml version="1.0" encoding="utf-8"?>
<!-- Generator: Adobe Illustrator 16.0.0, SVG Export Plug-In . SVG Version: 6.00 Build 0)  -->
<!DOCTYPE svg PUBLIC "-//W3C//DTD SVG 1.1//EN" "http://www.w3.org/Graphics/SVG/1.1/DTD/svg11.dtd">
<svg version="1.1" id="Layer_1" xmlns="http://www.w3.org/2000/svg" xmlns:xlink="http://www.w3.org/1999/xlink" x="0px" y="0px"
	 width="612px" height="612px" viewBox="0 0 612 612" enable-background="new 0 0 612 612" xml:space="preserve">
<g>
	<path fill="#C35C3D" d="M105.168,304.934C74.703,304.934,50,280.285,50,249.766v-104.45C50,92.664,92.586,50,145.316,50
		c8.286,0,15.016,6.715,15.016,15v184.766C160.332,280.223,135.684,304.934,105.168,304.934L105.168,304.934z M105.168,304.934"/>
	<path fill="#AB4830" d="M506.832,304.934c-30.461,0-55.168-24.649-55.168-55.168V65c0-8.285,6.719-15,15-15
		C519.336,50,562,92.578,562,145.316v104.45C562,280.223,537.352,304.934,506.832,304.934L506.832,304.934z M506.832,304.934"/>
	<path fill="#DA8A53" d="M466.668,482.734H145.332c-8.281,0-15-6.719-15-15V65c0-8.285,6.719-15,15-15h321.332
		c8.285,0,15,6.715,15,15v402.734C481.668,476.02,474.949,482.734,466.668,482.734L466.668,482.734z M466.668,482.734"/>
	<path fill="#C35C3D" d="M466.668,50H306v432.734h160.668c8.281,0,15-6.719,15-15V65C481.668,56.715,474.949,50,466.668,50
		L466.668,50z M466.668,50"/>
	<path fill="#4A93CF" d="M338.133,562h128.531c8.285,0,15-6.715,15-15v-79.266H338.133c-8.285,0-15,6.715-15,15V547
		C323.133,555.285,329.848,562,338.133,562L338.133,562z M338.133,562"/>
	<path fill-rule="evenodd" clip-rule="evenodd" fill="#794233" d="M225.668,130.332c8.277,0,15,6.723,15,15c0,8.273-6.723,15-15,15
		c-8.281,0-15-6.727-15-15C210.668,137.055,217.387,130.332,225.668,130.332L225.668,130.332z M225.668,130.332"/>
	<path fill-rule="evenodd" clip-rule="evenodd" fill="#61372C" d="M386.332,130.332c8.281,0,15,6.723,15,15c0,8.273-6.719,15-15,15
		c-8.277,0-15-6.727-15-15C371.332,137.055,378.055,130.332,386.332,130.332L386.332,130.332z M386.332,130.332"/>
	<path fill="#C35C3D" d="M370.266,339.199h-16.066C335.906,339.199,321,324.398,321,306v-16.066c0-8.286-6.715-15-15-15
		s-15,6.714-15,15V306c0,18.367-14.879,33.199-33.199,33.199h-16.067c-8.285,0-15,6.715-15,15s6.715,15,15,15h16.067
		c16.867,0,32.738-6.574,44.691-18.516c1.231-1.23,2.391-2.516,3.508-3.828c1.117,1.316,2.281,2.598,3.516,3.832
		c11.945,11.938,27.816,18.512,44.684,18.512h16.066c8.285,0,15-6.715,15-15S378.551,339.199,370.266,339.199L370.266,339.199z
		 M370.266,339.199"/>
	<path fill="#AB4830" d="M306,346.855c1.117,1.316,2.277,2.598,3.512,3.832c11.949,11.938,27.82,18.512,44.688,18.512h16.066
		c8.285,0,15-6.715,15-15s-6.715-15-15-15h-16.066C335.906,339.199,321,324.398,321,306v-16.066c0-8.286-6.715-15-15-15V346.855z
		 M306,346.855"/>
	<path fill="#794233" d="M368.082,209.602H243.918c-18.992,0-34.316,15.363-34.316,34.316c0,25.371,20.64,46.016,46.011,46.016
		h100.77c25.375,0,46.016-20.645,46.016-46.016C402.398,224.926,387.031,209.602,368.082,209.602L368.082,209.602z M368.082,209.602
		"/>
	<path fill="#61372C" d="M368.082,209.602H306v80.332h50.383c25.375,0,46.016-20.645,46.016-46.016
		C402.398,224.926,387.031,209.602,368.082,209.602L368.082,209.602z M368.082,209.602"/>
	<path fill="#54C3F0" d="M273.867,562H145.332c-8.281,0-15-6.715-15-15v-79.266h143.535c8.281,0,15,6.715,15,15V547
		C288.867,555.285,282.152,562,273.867,562L273.867,562z M273.867,562"/>
	<path fill="#FEE43F" d="M338.133,562h-64.266c-8.285,0-15-6.715-15-15v-64.266c0-8.285,6.715-15,15-15h64.266
		c8.285,0,15,6.715,15,15V547C353.133,555.285,346.418,562,338.133,562L338.133,562z M338.133,562"/>
	<path fill="#FAA31A" d="M338.133,467.734H306V562h32.133c8.285,0,15-6.715,15-15v-64.266
		C353.133,474.449,346.418,467.734,338.133,467.734L338.133,467.734z M338.133,467.734"/>
</g>
</svg>
