<?xml version="1.0" encoding="utf-8"?>
<!-- Generator: Adobe Illustrator 16.0.0, SVG Export Plug-In . SVG Version: 6.00 Build 0)  -->
<!DOCTYPE svg PUBLIC "-//W3C//DTD SVG 1.1//EN" "http://www.w3.org/Graphics/SVG/1.1/DTD/svg11.dtd">
<svg version="1.1" id="Layer_1" xmlns="http://www.w3.org/2000/svg" xmlns:xlink="http://www.w3.org/1999/xlink" x="0px" y="0px"
	 width="612px" height="612px" viewBox="0 0 612 612" enable-background="new 0 0 612 612" xml:space="preserve">
<g>
	<g>
		<defs>
			<rect id="SVGID_1_" x="50" y="56" width="512" height="500"/>
		</defs>
		<clipPath id="SVGID_2_">
			<use xlink:href="#SVGID_1_"  overflow="visible"/>
		</clipPath>
		<path clip-path="url(#SVGID_2_)" fill="#F04D66" d="M547,101H102c-8.285,0-15-6.715-15-15s6.715-15,15-15h445
			c8.285,0,15,6.715,15,15S555.285,101,547,101L547,101z M547,101"/>
		<path clip-path="url(#SVGID_2_)" fill="#F04D66" d="M547.016,196c-0.395,0-0.793-0.016-1.191-0.047l-445-35
			c-8.258-0.648-14.429-7.871-13.777-16.129c0.648-8.258,7.902-14.433,16.129-13.777l445,35c8.258,0.648,14.43,7.871,13.777,16.129
			C561.336,190.035,554.766,196,547.016,196L547.016,196z M547.016,196"/>
		<path clip-path="url(#SVGID_2_)" fill="#EE2A44" d="M547,71H306v30h241c8.285,0,15-6.715,15-15S555.285,71,547,71L547,71z M547,71
			"/>
		<path clip-path="url(#SVGID_2_)" fill="#EE2A44" d="M548.176,166.047L306,147v30.09l239.824,18.863
			c0.398,0.035,0.797,0.047,1.191,0.047c7.75,0,14.32-5.965,14.938-13.824C562.602,173.918,556.434,166.695,548.176,166.047
			L548.176,166.047z M548.176,166.047"/>
	</g>
	<path fill="#FFD55F" d="M147,266c-8.285,0-15-6.715-15-15V71c0-8.285,6.715-15,15-15s15,6.715,15,15v180
		C162,259.285,155.285,266,147,266L147,266z M147,266"/>
	<path fill="#FFD55F" d="M207,266c-8.285,0-15-6.715-15-15V71c0-8.285,6.715-15,15-15s15,6.715,15,15v180
		C222,259.285,215.285,266,207,266L207,266z M207,266"/>
	<path fill="#FFD55F" d="M267,266c-8.285,0-15-6.715-15-15V71c0-8.285,6.715-15,15-15s15,6.715,15,15v180
		C282,259.285,275.285,266,267,266L267,266z M267,266"/>
	<path fill="#434379" d="M422.508,556H189.492c-8.281,0-15-6.715-15-15v-60c0-8.285,6.719-15,15-15h233.016c8.285,0,15,6.715,15,15
		v60C437.508,549.285,430.793,556,422.508,556L422.508,556z M422.508,556"/>
	<path fill="#2C2E66" d="M422.508,466H306v90h116.508c8.281,0,15-6.715,15-15v-60C437.508,472.715,430.793,466,422.508,466
		L422.508,466z M422.508,466"/>
	<path fill="#52539C" d="M422.508,496H189.492c-2.539,0-5.039-0.645-7.262-1.875C100.668,448.992,50,363.113,50,270v-19
		c0-8.285,6.715-15,15-15h482c8.285,0,15,6.715,15,15v19c0,93.113-50.668,178.992-132.23,224.125
		C427.547,495.355,425.047,496,422.508,496L422.508,496z M422.508,496"/>
	<path fill="#434379" d="M547,236H306v260h116.508c2.539,0,5.039-0.645,7.262-1.875C511.332,448.992,562,363.113,562,270v-19
		C562,242.715,555.285,236,547,236L547,236z M547,236"/>
</g>
</svg>
