<?xml version="1.0" encoding="utf-8"?>
<!-- Generator: Adobe Illustrator 16.0.0, SVG Export Plug-In . SVG Version: 6.00 Build 0)  -->
<!DOCTYPE svg PUBLIC "-//W3C//DTD SVG 1.1//EN" "http://www.w3.org/Graphics/SVG/1.1/DTD/svg11.dtd">
<svg version="1.1" id="Layer_1" xmlns="http://www.w3.org/2000/svg" xmlns:xlink="http://www.w3.org/1999/xlink" x="0px" y="0px"
	 width="468px" height="468px" viewBox="0 0 468 468" enable-background="new 0 0 468 468" xml:space="preserve">
<g id="surface1">
	<path fill="#4CAF50" d="M436.644,68.623H246.847v332.145h189.797c6.581,0,11.862-5.281,11.862-11.862V80.485
		C448.507,73.904,443.225,68.623,436.644,68.623z"/>
	<path fill="#FFFFFF" d="M329.884,127.935h83.036v35.587h-83.036V127.935z"/>
	<path fill="#FFFFFF" d="M329.884,246.558h83.036v35.587h-83.036V246.558z"/>
	<path fill="#FFFFFF" d="M329.884,305.869h83.036v35.587h-83.036V305.869z"/>
	<path fill="#FFFFFF" d="M329.884,187.246h83.036v35.587h-83.036V187.246z"/>
	<path fill="#FFFFFF" d="M246.847,127.935h59.312v35.587h-59.312V127.935z"/>
	<path fill="#FFFFFF" d="M246.847,246.558h59.312v35.587h-59.312V246.558z"/>
	<path fill="#FFFFFF" d="M246.847,305.869h59.312v35.587h-59.312V305.869z"/>
	<path fill="#FFFFFF" d="M246.847,187.246h59.312v35.587h-59.312V187.246z"/>
	<path fill="#2E7D32" d="M270.572,448.217L21.464,400.768V68.623l249.108-47.449V448.217z"/>
	<path fill="#FFFFFF" d="M177.203,317.731l-28.589-54.128c-1.113-1.981-2.231-5.693-3.379-11.117h-0.427
		c-0.549,2.555-1.854,6.443-3.844,11.627l-28.731,53.618H67.667l52.907-83.036l-48.425-83.036h45.507l23.769,49.764
		c1.863,3.938,3.477,8.621,4.958,13.996h0.476c0.912-3.202,2.683-8.067,5.218-14.461l26.432-49.298h41.707l-49.822,82.301
		l51.161,83.723h-44.34L177.203,317.731z"/>
</g>
</svg>
