<?xml version="1.0" encoding="utf-8"?>
<!-- Generator: Adobe Illustrator 16.0.0, SVG Export Plug-In . SVG Version: 6.00 Build 0)  -->
<!DOCTYPE svg PUBLIC "-//W3C//DTD SVG 1.1//EN" "http://www.w3.org/Graphics/SVG/1.1/DTD/svg11.dtd">
<svg version="1.1" id="Layer_1" xmlns="http://www.w3.org/2000/svg" xmlns:xlink="http://www.w3.org/1999/xlink" x="0px" y="0px"
	 width="468px" height="468px" viewBox="0 0 468 468" enable-background="new 0 0 468 468" xml:space="preserve">
<g>
	<path fill="#FF8A21" d="M298.959,291.363c-53.149,76.179-60.829,140.546-60.829,140.546c-1.179,5.315-5.904,5.315-7.086,0
		c0,0-10.039-64.367-62.007-140.551c-43.108-60.238-62.595-83.863-62.595-132.875c0-70.276,56.103-126.379,126.969-126.379
		c70.275,0,128.149,56.103,128.149,126.379C361.559,207.5,323.762,255.337,298.959,291.363z"/>
	<g>
		<path fill="#FFFFFF" d="M236.09,207.303h-5.409c-0.178-9.764,0.284-17.064,1.385-21.904c1.099-4.837,3.958-11.5,8.577-19.99
			c4.619-8.488,7.652-15.306,9.104-20.453c1.451-5.146,2.177-11.5,2.177-19.066c0-11.698-2.288-20.32-6.861-25.863
			c-4.574-5.542-9.984-8.313-16.229-8.313c-4.75,0-8.754,1.276-12.007,3.827c-2.464,1.936-3.695,3.958-3.695,6.07
			c0,1.408,0.835,3.608,2.507,6.597c3.781,6.775,5.674,12.535,5.674,17.286c0,4.311-1.474,7.917-4.421,10.82
			c-2.948,2.903-6.62,4.354-11.018,4.354c-4.927,0-9.061-1.736-12.402-5.212c-3.344-3.474-5.015-8.07-5.015-13.789
			c0-10.378,4.486-19.483,13.459-27.313c8.973-7.829,21.508-11.744,37.606-11.744c17.064,0,30.063,4.07,38.99,12.205
			c8.928,8.138,13.394,17.968,13.394,29.491c0,8.358-2.288,16.078-6.862,23.157c-4.573,7.082-13.414,14.933-26.521,23.553
			c-8.798,5.806-14.58,10.975-17.351,15.504C238.399,191.052,236.705,197.979,236.09,207.303z M234.639,226.568
			c5.893,0,10.907,2.068,15.042,6.202c4.134,4.136,6.202,9.15,6.202,15.042c0,5.896-2.068,10.932-6.202,15.108
			c-4.135,4.177-9.149,6.269-15.042,6.269c-5.894,0-10.909-2.092-15.042-6.269c-4.136-4.177-6.202-9.213-6.202-15.108
			c0-5.892,2.065-10.906,6.202-15.042C223.73,228.636,228.745,226.568,234.639,226.568z"/>
	</g>
</g>
</svg>
