<?xml version="1.0" encoding="utf-8"?>
<!-- Generator: Adobe Illustrator 16.0.0, SVG Export Plug-In . SVG Version: 6.00 Build 0)  -->
<!DOCTYPE svg PUBLIC "-//W3C//DTD SVG 1.1//EN" "http://www.w3.org/Graphics/SVG/1.1/DTD/svg11.dtd">
<svg version="1.1" id="Layer_1" xmlns="http://www.w3.org/2000/svg" xmlns:xlink="http://www.w3.org/1999/xlink" x="0px" y="0px"
	 width="468px" height="468px" viewBox="0 0 468 468" enable-background="new 0 0 468 468" xml:space="preserve">
<g>
	<path fill="#55BE07" d="M298.959,291.363c-53.149,76.179-60.829,140.546-60.829,140.546c-1.179,5.315-5.904,5.315-7.086,0
		c0,0-10.039-64.367-62.007-140.551c-43.108-60.238-62.595-83.863-62.595-132.875c0-70.276,56.103-126.379,126.969-126.379
		c70.275,0,128.149,56.103,128.149,126.379C361.559,207.5,323.762,255.337,298.959,291.363z"/>
	<path fill="#FFFFFF" d="M319.848,114.521l-89.011,89.012l-20.416,20.415l-20.415-20.415l-40.014-40.016l20.415-20.415
		l40.014,40.015l89.012-89.012L319.848,114.521z"/>
</g>
</svg>
