<?xml version="1.0" encoding="utf-8"?>
<!-- Generator: Adobe Illustrator 16.0.0, SVG Export Plug-In . SVG Version: 6.00 Build 0)  -->
<!DOCTYPE svg PUBLIC "-//W3C//DTD SVG 1.1//EN" "http://www.w3.org/Graphics/SVG/1.1/DTD/svg11.dtd">
<svg version="1.1" id="Layer_2" xmlns="http://www.w3.org/2000/svg" xmlns:xlink="http://www.w3.org/1999/xlink" x="0px" y="0px"
	 width="399.971px" height="159.871px" viewBox="0 0 399.971 159.871" enable-background="new 0 0 399.971 159.871"
	 xml:space="preserve">
<g>
	<g>
		<path d="M391.14,28.91V18.631h-45.363v79.768h45.363v-10.39h-33.178V61.867h31.146V51.7h-31.146V28.91H391.14z M293.5,82.462
			l-20.346-63.832h-18.378v79.768h11.059V53.376c0-2.754-0.039-5.604-0.111-8.546c-0.076-2.941-0.17-5.659-0.282-8.155
			c-0.113-2.495-0.245-4.525-0.396-6.089h0.451L287.871,98.4h10.494l23.052-67.702h0.451c-0.076,1.639-0.169,3.687-0.282,6.145
			c-0.111,2.458-0.226,5.066-0.338,7.82c-0.113,2.756-0.17,5.438-0.17,8.044V98.4h11.849V18.631h-18.378L293.5,82.462z
			 M119.864,28.234v-8.603h-54.73v10.39h40.061L63.893,90.796V99.4h56.986V89.009H78.563L119.864,28.234z M6.776,99.399H52.14
			v-10.39H18.963V62.867h31.146V52.7H18.963V29.91H52.14V19.631H6.776V99.399z"/>
	</g>
</g>
<path fill="#58B947" d="M185.841,4.015c30.375,0,55,24.625,55,55s-24.624,55-55,55s-55-24.625-55-55S155.466,4.015,185.841,4.015z"
	/>
<path fill="#FFFFFF" d="M220.411,39.862l-36.231,36.232l-8.311,8.31l-8.311-8.31L151.27,59.807l8.31-8.311l16.288,16.287
	L212.1,31.552L220.411,39.862z"/>
<g>
	<g>
		<path fill="#7A7A7A" d="M35.181,143.783c-0.236,0.821-0.457,1.723-0.663,2.704c-0.207,0.984-0.383,1.908-0.531,2.772
			c-0.148,0.865-0.25,1.548-0.31,2.046H33.5c-0.029-0.558-0.118-1.261-0.265-2.111c-0.148-0.853-0.317-1.7-0.509-2.553
			c-0.192-0.851-0.348-1.539-0.464-2.067l-3.316-12.189h-6.102l-3.449,12.189c-0.119,0.44-0.267,1.094-0.442,1.959
			c-0.176,0.864-0.347,1.754-0.508,2.661c-0.163,0.91-0.273,1.627-0.332,2.156h-0.177c-0.061-0.558-0.162-1.276-0.311-2.156
			c-0.147-0.881-0.316-1.805-0.508-2.771c-0.192-0.969-0.391-1.85-0.597-2.641l-2.962-11.396H7.942l6.721,23.893h6.103l2.785-10.209
			c0.147-0.557,0.324-1.26,0.531-2.111c0.206-0.85,0.42-1.729,0.642-2.641c0.221-0.908,0.42-1.752,0.597-2.529
			c0.177-0.776,0.309-1.356,0.396-1.738h0.178c0.088,0.382,0.221,0.962,0.397,1.738c0.178,0.777,0.375,1.621,0.598,2.529
			c0.221,0.91,0.435,1.791,0.641,2.641c0.206,0.853,0.383,1.539,0.531,2.068l2.652,10.252h6.19l6.81-23.893h-5.526L35.181,143.783z
			 M72.987,143.783c-0.236,0.821-0.457,1.723-0.663,2.704c-0.207,0.984-0.383,1.908-0.531,2.772c-0.147,0.865-0.25,1.548-0.31,2.046
			h-0.177c-0.03-0.558-0.118-1.261-0.266-2.111c-0.147-0.853-0.316-1.7-0.509-2.553c-0.192-0.851-0.347-1.539-0.464-2.067
			l-3.316-12.189H60.65l-3.449,12.189c-0.118,0.44-0.266,1.094-0.442,1.959c-0.176,0.864-0.347,1.754-0.508,2.661
			c-0.163,0.91-0.272,1.627-0.332,2.156h-0.177c-0.059-0.558-0.162-1.276-0.31-2.156c-0.148-0.881-0.317-1.805-0.509-2.771
			c-0.191-0.969-0.391-1.85-0.597-2.641l-2.962-11.396h-5.616l6.722,23.893h6.102l2.786-10.209c0.146-0.557,0.324-1.26,0.531-2.111
			c0.206-0.85,0.42-1.729,0.641-2.641c0.221-0.908,0.42-1.752,0.597-2.529c0.178-0.776,0.311-1.356,0.398-1.738h0.177
			c0.088,0.382,0.221,0.962,0.398,1.738c0.177,0.777,0.376,1.621,0.597,2.529c0.221,0.91,0.435,1.791,0.642,2.641
			c0.206,0.853,0.384,1.539,0.53,2.068l2.653,10.252h6.189l6.811-23.893h-5.527L72.987,143.783z M110.793,143.783
			c-0.235,0.821-0.458,1.723-0.664,2.704c-0.207,0.984-0.383,1.908-0.529,2.772c-0.148,0.865-0.251,1.548-0.311,2.046h-0.177
			c-0.029-0.558-0.118-1.261-0.265-2.111c-0.148-0.853-0.317-1.7-0.509-2.553c-0.191-0.851-0.347-1.539-0.464-2.067l-3.315-12.189
			h-6.104l-3.449,12.189c-0.117,0.44-0.265,1.094-0.441,1.959c-0.177,0.864-0.348,1.754-0.508,2.661
			c-0.163,0.91-0.273,1.627-0.332,2.156h-0.178c-0.059-0.558-0.161-1.276-0.31-2.156c-0.147-0.881-0.317-1.805-0.508-2.771
			c-0.192-0.969-0.392-1.85-0.598-2.641l-2.963-11.396h-5.615l6.721,23.893h6.102l2.786-10.209c0.147-0.557,0.324-1.26,0.531-2.111
			c0.206-0.85,0.42-1.729,0.641-2.641c0.222-0.908,0.42-1.752,0.598-2.529c0.177-0.776,0.31-1.356,0.397-1.738h0.177
			c0.089,0.382,0.222,0.962,0.398,1.738c0.177,0.777,0.376,1.621,0.597,2.529c0.222,0.91,0.436,1.791,0.642,2.641
			c0.206,0.853,0.383,1.539,0.53,2.068l2.653,10.252h6.19l6.81-23.893H113.8L110.793,143.783z M125.297,150.074
			c-0.914,0-1.702,0.258-2.365,0.77c-0.663,0.515-0.995,1.386-0.995,2.617c0,1.203,0.332,2.068,0.995,2.597
			c0.664,0.528,1.451,0.793,2.365,0.793c0.913,0,1.709-0.265,2.389-0.793c0.678-0.527,1.017-1.394,1.017-2.597
			c0-1.231-0.339-2.104-1.017-2.617C127.006,150.332,126.21,150.074,125.297,150.074z M145.813,131.989
			c-3.332,0-6.006,1.072-8.025,3.214c-2.02,2.141-3.029,5.252-3.029,9.327c0,2.729,0.509,4.994,1.525,6.798
			c1.017,1.805,2.424,3.153,4.223,4.049c1.799,0.895,3.876,1.342,6.235,1.342c1.77,0,3.287-0.131,4.555-0.396
			c1.268-0.264,2.491-0.674,3.67-1.23v-4.444c-1.297,0.588-2.563,1.035-3.803,1.342c-1.238,0.31-2.624,0.464-4.156,0.464
			c-2.033,0-3.626-0.595-4.775-1.781c-1.149-1.189-1.754-2.867-1.813-5.039h15.831v-2.816c0-3.402-0.937-6.057-2.808-7.963
			C151.569,132.944,149.026,131.989,145.813,131.989z M140.552,141.759c0.146-1.877,0.686-3.293,1.613-4.246
			c0.93-0.953,2.146-1.432,3.648-1.432c1.709,0,2.97,0.537,3.781,1.606c0.811,1.069,1.229,2.429,1.26,4.069h-10.303V141.759z
			 M178.403,136.171v-3.74h-17.378v4.223h11.099l-11.762,16.236v3.389h18.395v-4.268h-11.895L178.403,136.171z M195.028,136.565
			c0.825,0,1.695,0.125,2.609,0.375c0.913,0.25,1.842,0.549,2.785,0.901l1.638-4.356c-0.826-0.409-1.835-0.762-3.029-1.055
			s-2.528-0.44-4.002-0.44c-2.241,0-4.23,0.434-5.97,1.299c-1.74,0.864-3.104,2.215-4.091,4.049c-0.987,1.832-1.48,4.217-1.48,7.147
			c0,4.226,0.995,7.32,2.985,9.285c1.989,1.965,4.693,2.946,8.113,2.946c1.533,0,2.83-0.125,3.893-0.372
			c1.061-0.25,2.048-0.652,2.963-1.212v-4.795c-0.915,0.558-1.896,0.996-2.941,1.318c-1.047,0.324-2.232,0.484-3.56,0.484
			c-1.857,0-3.28-0.645-4.268-1.936s-1.48-3.213-1.48-5.765C189.191,139.192,191.137,136.565,195.028,136.565z M220.896,131.989
			c-1.503,0-2.874,0.296-4.112,0.882c-1.238,0.588-2.24,1.481-3.007,2.684h-0.354c0.06-0.439,0.125-1.107,0.199-2.002
			c0.073-0.895,0.11-1.811,0.11-2.75v-7.963h-5.571v33.438h5.571v-11.659c0-2.611,0.412-4.621,1.238-6.027
			c0.824-1.408,2.356-2.113,4.599-2.113c1.532,0,2.653,0.447,3.36,1.342c0.708,0.896,1.062,2.238,1.062,4.027v14.432h5.571v-15.533
			c0-3.049-0.768-5.271-2.299-6.666C225.73,132.687,223.607,131.989,220.896,131.989z M247.294,131.989
			c-3.331,0-6.007,1.072-8.024,3.214c-2.021,2.141-3.029,5.252-3.029,9.327c0,2.729,0.509,4.994,1.525,6.798
			c1.018,1.805,2.425,3.153,4.224,4.049c1.798,0.895,3.876,1.342,6.234,1.342c1.769,0,3.286-0.131,4.555-0.396
			c1.267-0.264,2.49-0.674,3.67-1.23v-4.444c-1.298,0.588-2.564,1.035-3.803,1.342c-1.238,0.31-2.624,0.464-4.156,0.464
			c-2.034,0-3.626-0.595-4.775-1.781c-1.149-1.189-1.755-2.867-1.813-5.039h15.83v-2.816c0-3.402-0.937-6.057-2.809-7.963
			S250.507,131.989,247.294,131.989z M242.032,141.759c0.147-1.877,0.686-3.293,1.614-4.246c0.928-0.953,2.145-1.432,3.646-1.432
			c1.71,0,2.971,0.537,3.781,1.606c0.812,1.069,1.23,2.429,1.26,4.069h-10.302V141.759z M274.577,136.565
			c0.824,0,1.694,0.125,2.608,0.375c0.913,0.25,1.842,0.549,2.786,0.901l1.636-4.356c-0.825-0.409-1.835-0.762-3.029-1.055
			c-1.192-0.293-2.527-0.44-4.001-0.44c-2.241,0-4.23,0.434-5.97,1.299c-1.74,0.864-3.104,2.215-4.091,4.049
			c-0.987,1.832-1.48,4.217-1.48,7.147c0,4.226,0.994,7.32,2.984,9.285c1.988,1.965,4.693,2.946,8.113,2.946
			c1.532,0,2.83-0.125,3.892-0.372c1.062-0.25,2.049-0.652,2.963-1.212v-4.795c-0.914,0.558-1.895,0.996-2.94,1.318
			c-1.047,0.324-2.232,0.484-3.56,0.484c-1.857,0-3.279-0.645-4.268-1.936c-0.987-1.291-1.48-3.213-1.48-5.765
			C268.74,139.192,270.686,136.565,274.577,136.565z M309.332,132.431h-6.323l-7.074,7.523c-0.501,0.526-1.002,1.129-1.503,1.805
			c-0.502,0.674-0.944,1.275-1.327,1.803h-0.133c0.06-0.762,0.117-1.576,0.178-2.441c0.059-0.865,0.088-1.664,0.088-2.397v-15.884
			h-5.527v33.439h5.527v-7.92l2.786-2.289l7.429,10.209h6.5l-10.215-13.553L309.332,132.431z M317.38,150.074
			c-0.914,0-1.701,0.258-2.365,0.77c-0.663,0.515-0.994,1.386-0.994,2.617c0,1.203,0.331,2.068,0.994,2.597
			c0.664,0.528,1.451,0.793,2.365,0.793c0.913,0,1.709-0.265,2.389-0.793c0.678-0.527,1.017-1.394,1.017-2.597
			c0-1.231-0.339-2.104-1.017-2.617C319.089,150.332,318.293,150.074,317.38,150.074z M355.717,131.989
			c-1.475,0-2.873,0.296-4.2,0.882c-1.326,0.588-2.358,1.524-3.096,2.815h-0.441c-0.648-1.291-1.585-2.229-2.809-2.815
			s-2.733-0.882-4.531-0.882c-1.388,0-2.714,0.287-3.98,0.859c-1.267,0.571-2.27,1.473-3.007,2.705h-0.311l-0.796-3.123h-4.289
			v23.848h5.572v-11.659c0-2.611,0.382-4.621,1.149-6.027c0.766-1.408,2.167-2.113,4.2-2.113c2.741,0,4.111,1.775,4.111,5.324
			v14.477h5.572v-12.408c0-2.404,0.412-4.238,1.238-5.5c0.823-1.263,2.21-1.894,4.155-1.894c2.713,0,4.068,1.774,4.068,5.323v14.478
			h5.571v-15.532c0-3.078-0.687-5.31-2.058-6.688C360.471,132.679,358.429,131.989,355.717,131.989z M392.064,142.813
			c0-3.401-0.938-6.058-2.81-7.963c-1.872-1.906-4.415-2.86-7.627-2.86c-3.332,0-6.008,1.071-8.025,3.213
			c-2.021,2.141-3.028,5.252-3.028,9.327c0,2.729,0.508,4.994,1.525,6.798c1.017,1.805,2.424,3.153,4.223,4.049
			c1.798,0.895,3.876,1.342,6.234,1.342c1.77,0,3.286-0.131,4.555-0.396c1.268-0.264,2.491-0.674,3.67-1.23v-4.444
			c-1.297,0.588-2.564,1.035-3.803,1.342c-1.237,0.31-2.624,0.464-4.156,0.464c-2.034,0-3.626-0.595-4.775-1.781
			c-1.148-1.189-1.754-2.867-1.813-5.039h15.831L392.064,142.813L392.064,142.813z M376.366,141.759
			c0.147-1.877,0.687-3.293,1.614-4.246s2.145-1.432,3.647-1.432c1.709,0,2.97,0.537,3.78,1.606c0.812,1.069,1.23,2.429,1.26,4.069
			h-10.302V141.759z"/>
	</g>
</g>
</svg>
