<?xml version="1.0" encoding="utf-8"?>
<!-- Generator: Adobe Illustrator 16.0.0, SVG Export Plug-In . SVG Version: 6.00 Build 0)  -->
<!DOCTYPE svg PUBLIC "-//W3C//DTD SVG 1.1//EN" "http://www.w3.org/Graphics/SVG/1.1/DTD/svg11.dtd">
<svg version="1.1" id="Layer_1" xmlns="http://www.w3.org/2000/svg" xmlns:xlink="http://www.w3.org/1999/xlink" x="0px" y="0px"
	 width="34px" height="34px" viewBox="0 0 34 34" enable-background="new 0 0 34 34" xml:space="preserve">
<circle fill="#565758" cx="17" cy="17" r="16.233"/>
<path fill="#FFFFFF" d="M25.178,13.726c0.01,0.176,0.012,0.352,0.012,0.529c0,5.407-4.113,11.642-11.64,11.642
	c-2.31,0-4.462-0.678-6.272-1.838c0.32,0.037,0.646,0.058,0.976,0.058c1.918,0,3.682-0.654,5.08-1.751
	c-1.788-0.035-3.3-1.219-3.82-2.844c0.25,0.049,0.506,0.074,0.77,0.074c0.373,0,0.734-0.049,1.077-0.144
	c-1.873-0.376-3.283-2.029-3.283-4.01l0.001-0.054c0.551,0.307,1.183,0.49,1.854,0.513c-1.099-0.735-1.821-1.985-1.821-3.406
	c0-0.749,0.202-1.452,0.554-2.057c2.019,2.476,5.033,4.104,8.433,4.273c-0.069-0.297-0.105-0.611-0.105-0.931
	c0-2.259,1.83-4.091,4.092-4.091c1.176,0,2.238,0.497,2.986,1.291c0.931-0.183,1.807-0.524,2.597-0.992
	c-0.308,0.956-0.955,1.758-1.8,2.263c0.828-0.098,1.617-0.319,2.352-0.643C26.672,12.429,25.979,13.15,25.178,13.726z"/>
</svg>
